<svg xmlns="http://www.w3.org/2000/svg" xmlns:xlink="http://www.w3.org/1999/xlink" viewBox="0 0 400 400"><defs><style>.cls-1{fill:none;}.cls-2,.cls-3{stroke-miterlimit:10;}.cls-2{fill:url(#linear-gradient);stroke:url(#linear-gradient-2);}.cls-3{fill:#e60000;stroke:#e60000;}</style><linearGradient id="linear-gradient" x1="115.9" y1="256.9" x2="223.24" y2="70.98" gradientUnits="userSpaceOnUse"><stop offset="0" stop-color="red"/><stop offset="0.17" stop-color="#f60304"/><stop offset="0.45" stop-color="#de0a0e"/><stop offset="0.8" stop-color="#b6161e"/><stop offset="1" stop-color="#9d1e28"/></linearGradient><linearGradient id="linear-gradient-2" x1="87.3" y1="306.44" x2="230.69" y2="58.09" xlink:href="#linear-gradient"/></defs><title>attackle_nobg</title><g id="Layer_2" data-name="Layer 2"><g id="Layer_1-2" data-name="Layer 1"><rect class="cls-1" width="400" height="400"/><path class="cls-2" d="M144.25,330.3,239.46,68.71c1.34-3.69-.77-6.71-4.7-6.71H160.27a5.38,5.38,0,0,0-4.7,3.29L98.23,222.83a11.56,11.56,0,0,0,0,6.84L134.85,330.3C137.44,337.4,141.66,337.4,144.25,330.3Z"/><path class="cls-3" d="M300.81,222.94,243.41,65.23A4.92,4.92,0,0,0,238.79,62H160.5a2.39,2.39,0,0,0-2.24,3.2l96.6,265.39c2.54,7,6.7,7,9.23,0l36.72-100.87A9.88,9.88,0,0,0,300.81,222.94Z"/><path class="cls-3" d="M155.57,65.29c1.64-.41,2.61.45,3.46,2-.6-1.55-.15-5.29,1.47-5.29A5.16,5.16,0,0,0,155.57,65.29Z"/></g></g></svg>